HIERARCHY
ROOT hip
{
	OFFSET 0.000000 0.000000 0.000000 
	CHANNELS 6 Xposition Yposition Zposition Xrotation Zrotation Yrotation
	JOINT abdomen
	{
		OFFSET 0.000000 3.402643 0.000000 
		CHANNELS 3 Xrotation Zrotation Yrotation
		JOINT chest
		{
			OFFSET 0.000000 8.438565 -0.680529 
			CHANNELS 3 Xrotation Zrotation Yrotation
			JOINT neck
			{
				OFFSET 0.000000 10.207942 -0.272212 
				CHANNELS 3 Xrotation Zrotation Yrotation
				JOINT head
				{
					OFFSET 0.000000 3.130431 0.000000 
					CHANNELS 3 Xrotation Zrotation Yrotation
					End Site
					{
						OFFSET 0.000000 3.130435 0.000000 
					}
				}
			}
			JOINT lCollar
			{
				OFFSET 3.470700 6.669187 -0.816635 
				CHANNELS 3 Yrotation Zrotation Xrotation
				JOINT lShldr
				{
					OFFSET 3.198488 0.000000 0.000000 
					CHANNELS 3 Zrotation Yrotation Xrotation
					JOINT lForeArm
					{
						OFFSET 10.139888 0.000000 0.000000 
						CHANNELS 3 Yrotation Zrotation Xrotation
						JOINT lHand
						{
							OFFSET 8.370511 0.000000 0.000000 
							CHANNELS 3 Zrotation Yrotation Xrotation
							End Site
							{
								OFFSET 4.083176 0.000000 0.000000 
							}
						}
					}
				}
			}
			JOINT rCollar
			{
				OFFSET -3.470700 6.669187 -0.816635 
				CHANNELS 3 Yrotation Zrotation Xrotation
				JOINT rShldr
				{
					OFFSET -3.198488 0.000000 0.000000 
					CHANNELS 3 Zrotation Yrotation Xrotation
					JOINT rForeArm
					{
						OFFSET -10.139888 0.000000 0.000000 
						CHANNELS 3 Yrotation Zrotation Xrotation
						JOINT rHand
						{
							OFFSET -8.370511 0.000000 0.000000 
							CHANNELS 3 Zrotation Yrotation Xrotation
							End Site
							{
								OFFSET -4.083176 0.000000 0.000000 
							}
						}
					}
				}
			}
		}
	}
	JOINT lThigh
	{
		OFFSET 5.308129 -1.633274 1.361059 
		CHANNELS 3 Xrotation Zrotation Yrotation
		JOINT lShin
		{
			OFFSET -2.041588 -20.007561 0.000000 
			CHANNELS 3 Xrotation Zrotation Yrotation
			JOINT lFoot
			{
				OFFSET 0.000000 -19.190928 -1.224953 
				CHANNELS 3 Xrotation Yrotation Zrotation
				End Site
				{
					OFFSET 0.000000 -2.449906 4.627600 
				}
			}
		}
	}
	JOINT rThigh
	{
		OFFSET -5.308129 -1.633274 1.361059 
		CHANNELS 3 Xrotation Zrotation Yrotation
		JOINT rShin
		{
			OFFSET 2.041588 -20.007561 0.000000 
			CHANNELS 3 Xrotation Zrotation Yrotation
			JOINT rFoot
			{
				OFFSET 0.000000 -19.190928 -1.224953 
				CHANNELS 3 Xrotation Yrotation Zrotation
				End Site
				{
					OFFSET 0.000000 -2.449906 4.627600 
				}
			}
		}
	}
}
MOTION
Frames: 11
Frame Time: 0.033333
-2.442600 59.994194 -60.801968 -10.589010 4.969379 -55.378822 6.695953 8.060760 -10.761416 13.690444 -17.212940 19.869802 -8.544920 -0.009766 -0.009767 9.298134 -4.094147 47.728355 1.992188 -2.001953 0.000341 -41.115948 23.883097 -8.245104 -87.405846 -0.509755 8.953827 -6.832005 17.718014 -12.914783 -2.001953 1.992188 0.000000 81.291351 -2.853656 -53.273716 64.064835 0.490364 8.700977 3.850539 -18.649563 -11.516343 -71.528763 55.585308 -47.428169 27.875952 -1.254584 -2.386134 -10.025234 3.899128 7.700894 -45.634747 -48.413982 -33.333675 110.308853 -3.954345 3.764556 7.846442 2.385716 2.717224 
-2.442600 59.500877 -61.590626 -9.029750 3.902958 -46.536079 7.617807 7.539440 -9.653367 13.410369 -17.287230 19.958460 -8.544920 -0.009766 -0.009767 8.867223 -3.872144 39.040878 1.992188 -2.001953 0.000341 -42.662617 25.381876 -9.099075 -83.627304 -0.508525 8.916423 -6.832005 17.718014 -12.914783 -2.001953 1.992188 0.000000 82.045853 -3.309398 -51.985359 67.823357 0.498618 8.736769 3.850539 -18.649563 -11.516343 -65.607468 55.496006 -41.116096 33.475407 -1.029294 -2.711295 -7.715738 2.138337 5.897902 -53.162327 -50.091480 -25.284479 100.908058 -3.320116 4.001637 15.314193 3.170714 -0.205622 
-2.442594 59.007492 -62.379280 -7.654023 2.611624 -37.731236 8.528814 7.001989 -8.559639 13.123775 -17.352222 20.050047 -8.544920 -0.009766 -0.009767 8.411789 -3.718450 30.343624 1.992188 -2.001953 0.000341 -44.249493 26.860088 -9.994941 -79.844696 -0.508500 8.877872 -6.832005 17.718014 -12.914783 -2.001953 1.992188 0.000000 82.789055 -3.789347 -50.703621 71.601425 0.487415 8.777545 3.850539 -18.649563 -11.516343 -59.773540 55.046490 -34.901737 39.070827 -0.765283 -2.997559 -5.467758 0.342445 4.179945 -61.187511 -51.048050 -16.724272 91.507698 -2.626678 4.119225 22.815681 3.595644 -3.211622 
-2.435080 58.413975 -63.160370 -6.210541 1.013824 -27.465431 9.795750 6.556858 -7.391350 13.051541 -17.249678 19.872694 -8.544920 -0.009766 -0.009767 7.653985 -3.731824 19.770077 1.992188 -2.001953 0.000341 -47.144897 28.322832 -11.986831 -75.438354 -0.510026 8.833156 -6.832005 17.718014 -12.914783 -2.001953 1.992188 0.000000 83.155495 -4.049697 -48.416046 75.349792 0.485106 8.816045 3.850539 -18.649563 -11.516343 -53.512959 54.302959 -28.238831 45.334885 -0.433194 -3.308481 -2.519685 -1.828627 2.525302 -70.026894 -51.169598 -6.645291 79.001839 -1.757663 4.131947 31.235773 5.403458 -6.375440 
-2.427573 57.820408 -63.941471 -5.077369 -0.820778 -17.238279 11.045074 6.087084 -6.235453 12.978602 -17.146746 19.695408 -8.544920 -0.009766 -0.009767 6.910919 -3.885173 9.191014 1.992188 -2.001953 0.000341 -50.138302 29.686188 -14.083702 -71.035416 -0.512142 8.787334 -6.832005 17.718014 -12.914783 -2.001953 1.992188 0.000000 83.512474 -4.330820 -46.133209 79.107788 0.472527 8.851419 3.850539 -18.649563 -11.516343 -47.586071 53.149662 -21.917023 51.606110 -0.071769 -3.557647 0.391953 -4.074005 0.984761 -78.679657 -50.321022 3.267927 66.471107 -0.897563 3.950673 39.752861 6.755098 -9.789899 
-2.427573 57.154259 -64.730133 -4.196094 -2.745604 -6.560616 12.523622 5.671962 -4.984846 13.079525 -16.969610 19.420317 -8.544920 -0.009766 -0.009767 5.899599 -4.011631 -1.831260 1.992188 -2.001953 0.000341 -53.696430 30.514908 -16.342434 -66.466637 -0.529643 8.741255 -6.832005 17.718014 -12.914783 -2.001953 1.992188 0.000000 83.566277 -4.207626 -43.336647 82.436028 0.476287 8.893588 3.850539 -18.649563 -11.516343 -41.974476 51.675304 -15.934294 57.933273 0.286218 -3.787248 3.251347 -6.134847 -0.519866 -86.465019 -48.550800 12.602894 53.295471 -0.019483 3.554579 47.674339 9.065866 -12.296458 
-2.427577 56.487953 -65.518791 -3.693949 -4.802152 4.106022 13.985302 5.213509 -3.745185 13.171717 -16.792473 19.136068 -8.544920 -0.009766 -0.009767 4.931120 -4.322821 -12.859512 1.992188 -2.001953 0.000341 -57.325272 31.224731 -18.678558 -61.911369 -0.537830 8.689202 -6.832005 17.718014 -12.914783 -2.001953 1.992188 0.000000 83.618164 -4.102487 -40.541607 85.764183 0.481451 8.934649 3.850539 -18.649563 -11.516343 -36.809418 49.867714 -10.393332 64.269447 0.678050 -3.943546 6.037833 -8.275474 -1.895261 -93.413399 -46.004749 21.126915 40.089474 0.712929 2.952581 55.769855 11.024308 -15.132440 
-2.432584 55.616398 -66.312454 -3.525899 -6.609497 14.217498 15.556205 4.751838 -2.361601 13.423096 -16.637291 18.904112 -8.544920 -0.009766 -0.009767 3.720032 -4.473702 -22.866621 1.992188 -2.001953 0.000341 -60.716148 31.140963 -20.357851 -57.651371 -0.555023 8.645958 -6.832005 17.718014 -12.914783 -2.001953 1.992188 0.000000 83.481735 -3.452824 -37.756645 88.223686 0.487080 8.954396 3.850539 -18.649563 -11.516343 -32.496765 47.926132 -5.732400 69.969086 1.067609 -4.082074 7.929808 -10.011086 -3.496930 -98.617691 -43.212246 27.597059 28.700830 1.206172 2.349052 61.915882 13.262688 -16.658216 
-2.437580 54.744617 -67.106102 -3.682943 -8.409627 24.370375 17.114241 4.247416 -0.988682 13.666953 -16.489744 18.684381 -8.544920 -0.009766 -0.009767 2.556615 -4.827349 -32.875572 1.992188 -2.001953 0.000341 -64.091354 30.976423 -22.006287 -53.393646 -0.567384 8.605926 -6.832005 17.718014 -12.914783 -2.001953 1.992188 0.000000 83.378166 -2.787872 -34.975349 90.673447 0.497874 8.974510 3.850539 -18.649563 -11.516343 -28.583883 45.790321 -1.456107 75.679001 1.457395 -4.170035 9.769218 -11.795412 -5.063626 -103.135658 -40.038990 33.426003 17.293863 1.578857 1.632197 68.189964 15.318943 -18.443035 
-2.430068 53.607727 -67.887199 -3.997175 -9.660028 32.936363 18.647123 3.671719 0.528763 14.015278 -16.471245 18.681612 -8.544920 -0.009766 -0.009767 1.276244 -4.996406 -40.439465 1.992188 -2.001953 0.000341 -66.316467 29.963078 -22.179188 -49.946781 -0.583166 8.570079 -6.832005 17.718014 -12.914783 -2.001953 1.992188 0.000000 83.234772 -1.432245 -32.704788 91.825127 0.496778 8.982844 3.850539 -18.649563 -11.516343 -25.729572 43.813900 1.655210 80.180344 1.788399 -4.207946 9.785092 -13.036157 -6.982216 -106.040428 -37.509979 36.755928 10.151120 1.771661 1.184863 71.405067 17.111113 -19.024303 
-2.422567 52.470448 -68.668297 -4.501530 -10.845045 41.533260 20.156750 3.054737 2.024856 14.363596 -16.452742 18.681616 -8.544920 -0.009766 -0.009767 0.024030 -5.325909 -47.989212 1.992188 -2.001953 0.000341 -68.513084 28.952271 -22.298883 -46.496262 -0.592435 8.539906 -6.832005 17.718014 -12.914783 -2.001953 1.992188 0.000000 83.153175 -0.054216 -30.448298 92.976830 0.504438 9.000977 3.850539 -18.649563 -11.516343 -23.114193 41.755810 4.537100 84.682335 2.100132 -4.239431 9.772075 -14.237785 -8.888654 -108.633179 -34.845173 39.817978 3.029871 1.890690 0.668281 74.644157 18.879108 -19.708923 
